<?xml version="1.0" encoding="iso-8859-1"?>
<!-- Generator: Adobe Illustrator 19.0.0, SVG Export Plug-In . SVG Version: 6.00 Build 0)  -->
<svg version="1.1" id="Capa_1" xmlns="http://www.w3.org/2000/svg" xmlns:xlink="http://www.w3.org/1999/xlink" x="0px" y="0px"
	 viewBox="0 0 480 480" style="enable-background:new 0 0 480 480;" xml:space="preserve">
<path id="XMLID_895_" d="M408.693,163.025c-26.832-20.435-58.86-35.415-93.779-44.212l8.986-27.705l72.713,23.334
	c2.896,0.929,6.057,0.49,8.59-1.192c2.532-1.683,4.162-4.427,4.428-7.456c1.896-21.63-3.653-43.595-15.623-61.847
	c-12.152-18.531-30.486-32.472-51.625-39.255c-21.14-6.785-44.162-6.116-64.827,1.884c-20.356,7.879-37.65,22.512-48.696,41.206
	c-1.547,2.618-1.819,5.798-0.738,8.641c1.081,2.842,3.396,5.039,6.292,5.967l70.443,22.607l-9.592,29.577
	c-17.906-3.234-36.423-4.896-55.265-4.896s-37.359,1.662-55.265,4.896L152.068,13.847c-1.97-6.074-6.569-10.731-12.618-12.776
	c-5.918-2.001-12.254-1.172-17.444,2.267L45.422,48.689c-4.752,2.814-6.323,8.948-3.509,13.7c2.814,4.752,8.949,6.321,13.7,3.509
	l76.837-45.5c0.202-0.12,0.4-0.246,0.593-0.38l32.042,98.796c-34.919,8.797-66.947,23.777-93.779,44.212
	C25.324,198.044,0,244.856,0,294.838s25.324,96.794,71.307,131.814C116.479,461.054,176.389,480,240,480
	s123.521-18.946,168.693-53.348C454.676,391.632,480,344.82,480,294.838S454.676,198.044,408.693,163.025z M253.462,47.498
	c19.918-23.809,52.316-33.549,82.81-23.764c30.493,9.786,51.173,36.561,53.517,67.513L253.462,47.498z M98.201,168.662
	c0.102-0.064,0.202-0.131,0.301-0.198c21.221-13.413,45.869-23.879,72.782-30.54l14.205,43.797
	c1.705,5.254,7.344,8.134,12.597,6.428c5.253-1.704,8.131-7.344,6.427-12.598l-13.538-41.742
	c15.769-2.704,32.182-4.134,49.026-4.134c16.845,0,33.257,1.43,49.025,4.134l-13.538,41.742c-1.703,5.254,1.174,10.894,6.428,12.598
	c5.256,1.702,10.893-1.175,12.598-6.428l14.204-43.797c26.913,6.66,51.557,17.125,72.777,30.537c0.1,0.068,0.201,0.136,0.305,0.201
	c0.008,0.005,0.016,0.011,0.021,0.016c-13.316,15.216-67.406,31.329-141.82,31.329c-74.414,0-128.503-16.113-141.82-31.329
	C98.186,168.673,98.193,168.667,98.201,168.662z M240,460c-121.309,0-220-74.092-220-165.163c0-44.49,23.558-84.932,61.795-114.659
	c0.337,0.472,0.696,0.931,1.077,1.374c19.737,23,82.881,38.454,157.127,38.454c74.247,0,137.392-15.454,157.127-38.453
	c0.381-0.444,0.74-0.903,1.077-1.375C436.441,209.906,460,250.348,460,294.838C460,385.909,361.309,460,240,460z M400,294.838
	c0,1.905-0.057,3.839-0.167,5.748c-0.31,5.315-4.718,9.418-9.975,9.418c-0.195,0-0.392-0.005-0.589-0.017
	c-5.514-0.321-9.724-5.051-9.403-10.564c0.089-1.523,0.134-3.066,0.134-4.586c0-5.522,4.478-10,10-10S400,289.315,400,294.838z
	 M369.962,352.62c4.077,3.725,4.363,10.05,0.638,14.127c-29.933,32.765-78.755,52.326-130.6,52.326c-5.523,0-10-4.477-10-10
	s4.477-10,10-10c46.323,0,89.625-17.128,115.834-45.816C359.56,349.181,365.883,348.895,369.962,352.62z"/>
<g>
</g>
<g>
</g>
<g>
</g>
<g>
</g>
<g>
</g>
<g>
</g>
<g>
</g>
<g>
</g>
<g>
</g>
<g>
</g>
<g>
</g>
<g>
</g>
<g>
</g>
<g>
</g>
<g>
</g>
</svg>
