<?xml version="1.0" encoding="iso-8859-1"?>
<!-- Generator: Adobe Illustrator 19.0.0, SVG Export Plug-In . SVG Version: 6.00 Build 0)  -->
<svg version="1.1" id="Layer_1" xmlns="http://www.w3.org/2000/svg" xmlns:xlink="http://www.w3.org/1999/xlink" x="0px" y="0px"
	 viewBox="0 0 512 512" style="enable-background:new 0 0 512 512;" xml:space="preserve">
<g>
	<g>
		<g>
			<path d="M448.963,0l-87.089,0.162c-21.838,0.041-41.664,13.807-49.332,34.255l14.751,5.532
				c5.38-14.346,19.289-24.005,34.611-24.033l87.088-0.162L448.963,0z"/>
			
				<rect x="302.263" y="46.409" transform="matrix(0.9363 0.3511 -0.3511 0.9363 41.9473 -104.8674)" width="15.753" height="33.649"/>
			<path d="M308.662,89.627l-14.751-5.532l-17.726,47.27l-16.254-16.254V55.358H133.9v59.993L63.008,194.12V512H338.7V193.88
				l-50.279-50.279L308.662,89.627z M149.654,71.113h94.523v39.385h-94.523V71.113z M173.285,496.246H78.762V205.021h94.523V496.246
				z M88.571,189.267l56.714-63.015h82.503l-50.412,63.015H88.571z M322.947,496.246H189.039V211.055l71.114,42.669l62.794-41.862
				V496.246z M318.46,195.919l-58.75,39.167l-66.767-40.06l55.02-68.775h0.829l21.317,21.318l-15.636,41.697h-18.173v15.754h47.262
				v-15.754h-12.265l11.049-29.462L318.46,195.919z"/>
			<rect x="94.516" y="323.174" width="15.754" height="15.754"/>
			<rect x="118.143" y="323.174" width="15.754" height="15.754"/>
			<rect x="141.774" y="323.174" width="15.754" height="15.754"/>
			<rect x="94.516" y="220.774" width="63.015" height="15.754"/>
			<rect x="94.516" y="244.405" width="63.015" height="15.754"/>
			<rect x="94.516" y="268.036" width="63.015" height="15.754"/>
			<rect x="94.516" y="291.667" width="31.508" height="15.754"/>
			<path d="M204.793,334.99c0,28.232,22.968,51.2,51.2,51.2s51.2-22.968,51.2-51.2c0-28.232-22.968-51.2-51.2-51.2
				C227.761,283.79,204.793,306.758,204.793,334.99z M291.439,334.99c0,19.545-15.901,35.446-35.446,35.446
				c-19.545,0-35.446-15.901-35.446-35.446c0-19.545,15.901-35.446,35.446-35.446S291.439,315.445,291.439,334.99z"/>
			<rect x="204.789" y="464.738" width="102.4" height="15.754"/>
		</g>
	</g>
</g>
<g>
</g>
<g>
</g>
<g>
</g>
<g>
</g>
<g>
</g>
<g>
</g>
<g>
</g>
<g>
</g>
<g>
</g>
<g>
</g>
<g>
</g>
<g>
</g>
<g>
</g>
<g>
</g>
<g>
</g>
</svg>
